<svg id="レイヤー_1" data-name="レイヤー 1" xmlns="http://www.w3.org/2000/svg" viewBox="0 0 856.17 540.61"><defs><style>.cls-1,.cls-2{fill:#fff;stroke:#000;stroke-miterlimit:10;}.cls-2{stroke-width:2px;}</style></defs><title>homeButton</title><polygon class="cls-1" points="542.11 0.5 0.5 0.5 0.5 540.11 542.11 540.11 542.11 537.48 855.4 270.71 542.11 3.24 542.11 0.5"/><path class="cls-2" d="M382.07,312,571,499.8c10.68,10.62,3.16,28.86-11.9,28.86H181.3c-15.07,0-22.59-18.24-11.91-28.86L358.27,312A16.87,16.87,0,0,1,382.07,312Z" transform="translate(-84.62 -251.54)"/><path class="cls-2" d="M503.14,539.54H237.21a14.09,14.09,0,0,0-14.09,14.09V722.5a14.08,14.08,0,0,0,14.09,14.08h24.91v-134h88.55v134H503.14a14.08,14.08,0,0,0,14.08-14.08V553.63A14.08,14.08,0,0,0,503.14,539.54Z" transform="translate(-84.62 -251.54)"/></svg>