<svg id="レイヤー_1" data-name="レイヤー 1" xmlns="http://www.w3.org/2000/svg" viewBox="0 0 413.58 431.49"><defs><style>.cls-1{fill:#fff;stroke:#000;stroke-miterlimit:10;stroke-width:2px;}</style></defs><title>home</title><path class="cls-1" d="M512.07,291,701,478.8c10.68,10.62,3.16,28.86-11.9,28.86H311.3c-15.07,0-22.59-18.24-11.91-28.86L488.27,291A16.87,16.87,0,0,1,512.07,291Z" transform="translate(-293.38 -285.1)"/><path class="cls-1" d="M633.14,518.54H367.21a14.09,14.09,0,0,0-14.09,14.09V701.5a14.08,14.08,0,0,0,14.09,14.08h24.91v-134h88.55v134H633.14a14.08,14.08,0,0,0,14.08-14.08V532.63A14.08,14.08,0,0,0,633.14,518.54Z" transform="translate(-293.38 -285.1)"/></svg>