<svg id="レイヤー_1" data-name="レイヤー 1" xmlns="http://www.w3.org/2000/svg" viewBox="0 0 459.13 459.13"><defs><style>.cls-1{fill:#fff;stroke:#000;stroke-miterlimit:10;stroke-width:2px;}</style></defs><title>setting</title><path class="cls-1" d="M727.09,533.22a231.86,231.86,0,0,0,2.09-23.45l-10.78,1.85q.26-5.28.26-10.62a220.55,220.55,0,0,0-1.84-28.44l10.89,1a227.35,227.35,0,0,0-4-23.22l-9.94,4.58a216.37,216.37,0,0,0-11.62-37.31l10.75-1.89A229.27,229.27,0,0,0,703,394.3l-8.36,6.95a219.17,219.17,0,0,0-20.9-33l9.83-4.58a230.74,230.74,0,0,0-15.11-18.06l-6.23,8.81a219.4,219.4,0,0,0-28.67-26.5l8.23-6.91a231.27,231.27,0,0,0-19.25-13.56l-3.71,10a218.16,218.16,0,0,0-34.5-18.2l6.1-8.69a227.4,227.4,0,0,0-22.13-8.13l-1,10.54a216.67,216.67,0,0,0-38-8.59l3.58-9.84a229,229,0,0,0-23.45-2.09l1.76,10.26c-3.66-.18-7.35-.28-11.06-.28a220.7,220.7,0,0,0-27.85,1.76l.9-10.27A227.15,227.15,0,0,0,450,278l4.3,9.35a216.73,216.73,0,0,0-37.16,11.5l-1.77-10A225.39,225.39,0,0,0,394,298.68l6.48,7.79a219.23,219.23,0,0,0-32.86,20.78l-4.25-9.14a228.79,228.79,0,0,0-18.06,15.1l8.18,5.79a219.93,219.93,0,0,0-26.37,28.53l-6.41-7.65a227.47,227.47,0,0,0-13.56,19.26l9.32,3.44a217.77,217.77,0,0,0-18.08,34.35l-8.11-5.68a226.39,226.39,0,0,0-8.12,22.13l9.85.91a217.89,217.89,0,0,0-8.49,37.87l-9.26-3.38a229,229,0,0,0-2.08,23.45l9.7-1.66c-.16,3.46-.25,6.93-.25,10.43a221,221,0,0,0,1.82,28.35l-9.81-.87a227.35,227.35,0,0,0,4,23.22l9-4.13a216.15,216.15,0,0,0,11.58,37l-9.75,1.72a229.27,229.27,0,0,0,9.92,21.38l7.62-6.34a219.43,219.43,0,0,0,20.86,32.75l-9.05,4.22a230.74,230.74,0,0,0,15.11,18.06l5.76-8.16a220,220,0,0,0,28.63,26.28L359.54,681a231.27,231.27,0,0,0,19.25,13.56l3.5-9.47a218.49,218.49,0,0,0,34.47,18l-5.85,8.35A226.26,226.26,0,0,0,433,719.54l.94-10.21a216.67,216.67,0,0,0,38,8.41l-3.53,9.69a229,229,0,0,0,23.45,2.09l-1.76-10.22c3.32.15,6.64.24,10,.24a221.06,221.06,0,0,0,28.94-1.91l-.92,10.42a227.15,227.15,0,0,0,23.21-4l-4.4-9.56a217,217,0,0,0,37.19-11.7L586,713.24a225.39,225.39,0,0,0,21.37-9.92l-6.8-8.18a218.73,218.73,0,0,0,32.9-21l4.53,9.74A227,227,0,0,0,656,668.79l-8.78-6.21a220.13,220.13,0,0,0,26.41-28.77l7,8.31a229.89,229.89,0,0,0,13.57-19.26L684,619.1a217.61,217.61,0,0,0,18.11-34.61l8.94,6.26a226.39,226.39,0,0,0,8.12-22.13l-10.88-1a217.26,217.26,0,0,0,8.5-38.14Z" transform="translate(-271.09 -271.43)"/><path class="cls-1" d="M697.26,539.5a201.08,201.08,0,0,0,2.89-20.42l-9.51,1.13q.47-4.61.72-9.28a192,192,0,0,0-.32-25l9.48,1.33a197.93,197.93,0,0,0-2.44-20.49l-8.9,3.55a190.76,190.76,0,0,0-8.46-33.16L690.2,436a200.11,200.11,0,0,0-7.7-19.14l-7.63,5.69a192.4,192.4,0,0,0-16.78-29.82l8.81-3.56a201.4,201.4,0,0,0-12.39-16.48l-5.86,7.42a192.44,192.44,0,0,0-23.87-24.49L632.3,350a202.06,202.06,0,0,0-16.22-12.75l-3.7,8.61A191.08,191.08,0,0,0,583,328.36l5.72-7.33a198.47,198.47,0,0,0-19-8.12l-1.33,9.18a190.15,190.15,0,0,0-32.86-9.25l3.59-8.45a201.08,201.08,0,0,0-20.42-2.89l1.07,9.06q-4.8-.49-9.66-.75a193.21,193.21,0,0,0-24.45.27l1.26-8.95a200.37,200.37,0,0,0-20.49,2.44l3.34,8.38a189.15,189.15,0,0,0-33,8.37l-1.09-8.87a199.31,199.31,0,0,0-19.15,7.71l5.31,7.11A191.31,191.31,0,0,0,392.17,343l-3.31-8.19a198.75,198.75,0,0,0-16.49,12.39l6.9,5.43a192.63,192.63,0,0,0-24.37,23.76l-5.26-7a198,198,0,0,0-12.74,16.22l8,3.44a190.91,190.91,0,0,0-17.38,29.23l-6.84-5.35a202.1,202.1,0,0,0-8.11,19l8.58,1.25A189.65,189.65,0,0,0,312,465.87l-7.95-3.37a201.08,201.08,0,0,0-2.89,20.42l8.56-1c-.3,3-.54,6-.7,9.11a194.37,194.37,0,0,0,.31,24.88l-8.54-1.2a197.93,197.93,0,0,0,2.44,20.49l8-3.21a189.35,189.35,0,0,0,8.45,32.93L311.11,566a200.11,200.11,0,0,0,7.7,19.14l7-5.19a191.24,191.24,0,0,0,16.75,29.6l-8.11,3.28a201.4,201.4,0,0,0,12.39,16.48l5.42-6.87a192,192,0,0,0,23.85,24.29L369,652a202.22,202.22,0,0,0,16.23,12.75l3.49-8.13a191.14,191.14,0,0,0,29.33,17.3l-5.5,7a198.47,198.47,0,0,0,19,8.12l1.28-8.89a189.38,189.38,0,0,0,32.86,9.08l-3.53,8.33a200.49,200.49,0,0,0,20.41,2.89l-1.06-9c2.89.28,5.79.51,8.72.66a193.42,193.42,0,0,0,25.4-.35l-1.28,9.08a200.37,200.37,0,0,0,20.49-2.44l-3.41-8.57a189.84,189.84,0,0,0,33.06-8.54l1.13,9.23a199.31,199.31,0,0,0,19.15-7.71l-5.58-7.47a192.34,192.34,0,0,0,29.74-16.85l3.52,8.72a198.75,198.75,0,0,0,16.49-12.39l-7.4-5.83a191.94,191.94,0,0,0,24.41-24l5.72,7.59a198,198,0,0,0,12.74-16.22l-8.73-3.75a190.92,190.92,0,0,0,17.41-29.46l7.54,5.89a199.5,199.5,0,0,0,8.11-19l-9.48-1.38a189.67,189.67,0,0,0,9.18-33Z" transform="translate(-271.09 -271.43)"/><circle class="cls-1" cx="229.57" cy="229.57" r="139.02"/></svg>